HIERARCHY
ROOT Hips
{
	OFFSET 0.000000 83.214638 0.000000
	CHANNELS 6 Xposition Yposition Zposition Xrotation Yrotation Zrotation
	JOINT Pelvis
	{
		OFFSET 0.000000 0.000000 0.000000
		CHANNELS 3 Xrotation Yrotation Zrotation
		JOINT LeftUpLeg
		{
			OFFSET 8.479700 -4.795502 -0.379100
			CHANNELS 3 Xrotation Yrotation Zrotation
			JOINT LeftLeg
			{
				OFFSET 0.024144 -32.555107 0.112900
				CHANNELS 3 Xrotation Yrotation Zrotation
				JOINT LeftFoot
				{
					OFFSET -0.024144 -32.638630 -3.012600
					CHANNELS 3 Xrotation Yrotation Zrotation
					JOINT LeftToeBase
					{
						OFFSET 0.970200 -13.225400 11.864200
						CHANNELS 3 Xrotation Yrotation Zrotation
						End Site
						{
							OFFSET 0.000000 12.319262 0.000000
						}
					}
					JOINT LFootTongue
					{
						OFFSET 1.142400 -1.059800 6.665200
						CHANNELS 3 Xrotation Yrotation Zrotation
						End Site
						{
							OFFSET 0.000000 12.319262 0.000000
						}
					}
				}
				JOINT LeftPantLeg
				{
					OFFSET 0.918482 -16.533964 -2.284700
					CHANNELS 3 Xrotation Yrotation Zrotation
					End Site
					{
						OFFSET 0.350399 24.744368 0.000000
					}
				}
			}
		}
		JOINT RightUpLeg
		{
			OFFSET -8.479700 -4.795502 -0.379100
			CHANNELS 3 Xrotation Yrotation Zrotation
			JOINT RightLeg
			{
				OFFSET -0.023144 -32.555092 0.112900
				CHANNELS 3 Xrotation Yrotation Zrotation
				JOINT RightFoot
				{
					OFFSET 0.023144 -32.638641 -3.012700
					CHANNELS 3 Xrotation Yrotation Zrotation
					JOINT RightToeBase
					{
						OFFSET -0.970200 -13.225400 11.864200
						CHANNELS 3 Xrotation Yrotation Zrotation
						End Site
						{
							OFFSET 0.000000 12.319244 0.000000
						}
					}
					JOINT RFootTongue
					{
						OFFSET -1.142200 -1.059800 6.665200
						CHANNELS 3 Xrotation Yrotation Zrotation
						End Site
						{
							OFFSET 0.000000 12.319243 0.000000
						}
					}
				}
				JOINT RightPantLeg
				{
					OFFSET -0.919482 -16.533978 -2.284800
					CHANNELS 3 Xrotation Yrotation Zrotation
					End Site
					{
						OFFSET -0.350400 24.744419 0.000000
					}
				}
			}
		}
	}
	JOINT Spine
	{
		OFFSET 0.000000 7.722000 1.166200
		CHANNELS 3 Xrotation Yrotation Zrotation
		JOINT Spine1
		{
			OFFSET 0.000000 12.024101 0.248800
			CHANNELS 3 Xrotation Yrotation Zrotation
			JOINT Spine2
			{
				OFFSET 0.000000 11.502998 -0.491200
				CHANNELS 3 Xrotation Yrotation Zrotation
				JOINT Neck
				{
					OFFSET 0.000000 18.430702 -3.123100
					CHANNELS 3 Xrotation Yrotation Zrotation
					JOINT Head
					{
						OFFSET 0.000000 9.051102 1.034000
						CHANNELS 3 Xrotation Yrotation Zrotation
						JOINT HairB
						{
							OFFSET 0.208400 24.786102 24.822300
							CHANNELS 3 Xrotation Yrotation Zrotation
							End Site
							{
								OFFSET 0.000000 32.263779 0.000000
							}
						}
						JOINT HairA
						{
							OFFSET -7.081100 24.428299 23.196600
							CHANNELS 3 Xrotation Yrotation Zrotation
							End Site
							{
								OFFSET 0.000000 32.263779 0.000000
							}
						}
						JOINT Hat
						{
							OFFSET 16.728800 15.048294 -15.439601
							CHANNELS 3 Xrotation Yrotation Zrotation
							End Site
							{
								OFFSET 0.000000 32.263779 0.000000
							}
						}
					}
				}
				JOINT LeftShoulder
				{
					OFFSET 6.197800 13.665199 -4.064700
					CHANNELS 3 Xrotation Yrotation Zrotation
					JOINT LeftArm
					{
						OFFSET 7.778100 -0.187103 -1.709300
						CHANNELS 3 Xrotation Yrotation Zrotation
						JOINT LeftForeArm
						{
							OFFSET 22.049376 0.000000 0.000000
							CHANNELS 3 Xrotation Yrotation Zrotation
							JOINT LeftHand
							{
								OFFSET 23.009392 0.000000 0.000000
								CHANNELS 3 Xrotation Yrotation Zrotation
								JOINT LeftHandThumb1
								{
									OFFSET 3.507191 -2.063065 3.133727
									CHANNELS 3 Xrotation Yrotation Zrotation
									JOINT LeftHandThumb2
									{
										OFFSET 3.101337 -1.790558 1.790558
										CHANNELS 3 Xrotation Yrotation Zrotation
										JOINT LeftHandThumb3
										{
											OFFSET 3.058640 -1.765907 1.765906
											CHANNELS 3 Xrotation Yrotation Zrotation
											End Site
											{
												OFFSET -0.415260 3.926476 -0.049563
											}
										}
									}
								}
								JOINT LeftHandIndex1
								{
									OFFSET 11.334419 -0.901459 3.706815
									CHANNELS 3 Xrotation Yrotation Zrotation
									JOINT LeftHandIndex2
									{
										OFFSET 3.283112 0.000000 0.000000
										CHANNELS 3 Xrotation Yrotation Zrotation
										JOINT LeftHandIndex3
										{
											OFFSET 3.323853 0.000000 0.000000
											CHANNELS 3 Xrotation Yrotation Zrotation
											End Site
											{
												OFFSET -1.135597 3.097809 0.402452
											}
										}
									}
								}
								JOINT LeftHandMiddle1
								{
									OFFSET 11.335861 0.000000 0.000000
									CHANNELS 3 Xrotation Yrotation Zrotation
									JOINT LeftHandMiddle2
									{
										OFFSET 3.410492 0.000000 0.000000
										CHANNELS 3 Xrotation Yrotation Zrotation
										JOINT LeftHandMiddle3
										{
											OFFSET 3.312172 0.000000 0.000000
											CHANNELS 3 Xrotation Yrotation Zrotation
											End Site
											{
												OFFSET -1.150200 3.080154 0.400270
											}
										}
									}
								}
								JOINT LeftHandRing1
								{
									OFFSET 11.514786 -0.013176 -3.003090
									CHANNELS 3 Xrotation Yrotation Zrotation
									JOINT LeftHandRing2
									{
										OFFSET 3.053307 0.000000 0.000000
										CHANNELS 3 Xrotation Yrotation Zrotation
										JOINT LeftHandRing3
										{
											OFFSET 3.295807 0.000000 0.000000
											CHANNELS 3 Xrotation Yrotation Zrotation
											End Site
											{
												OFFSET -1.281006 3.013344 0.375733
											}
										}
									}
								}
								JOINT LeftHandPinky1
								{
									OFFSET 10.518692 -0.960396 -5.730441
									CHANNELS 3 Xrotation Yrotation Zrotation
									JOINT LeftHandPinky2
									{
										OFFSET 2.861649 0.000000 0.000000
										CHANNELS 3 Xrotation Yrotation Zrotation
										JOINT LeftHandPinky3
										{
											OFFSET 2.863380 0.000000 0.000000
											CHANNELS 3 Xrotation Yrotation Zrotation
											End Site
											{
												OFFSET -0.843597 2.711159 0.369971
											}
										}
									}
								}
							}
							JOINT LSleeve
							{
								OFFSET 6.676277 -0.344902 -1.011730
								CHANNELS 3 Xrotation Yrotation Zrotation
								End Site
								{
									OFFSET 0.000000 14.885353 0.000000
								}
							}
						}
					}
				}
				JOINT RightShoulder
				{
					OFFSET -6.197800 13.665199 -4.064700
					CHANNELS 3 Xrotation Yrotation Zrotation
					JOINT RightArm
					{
						OFFSET -7.778100 -0.187103 -1.709300
						CHANNELS 3 Xrotation Yrotation Zrotation
						JOINT RightForeArm
						{
							OFFSET -22.049376 0.000000 0.000000
							CHANNELS 3 Xrotation Yrotation Zrotation
							JOINT RightHand
							{
								OFFSET -23.009392 0.000000 0.000000
								CHANNELS 3 Xrotation Yrotation Zrotation
								JOINT RightHandThumb1
								{
									OFFSET -3.507191 -2.063065 3.133727
									CHANNELS 3 Xrotation Yrotation Zrotation
									JOINT RightHandThumb2
									{
										OFFSET -3.101337 -1.790558 1.790558
										CHANNELS 3 Xrotation Yrotation Zrotation
										JOINT RightHandThumb3
										{
											OFFSET -3.058640 -1.765907 1.765906
											CHANNELS 3 Xrotation Yrotation Zrotation
											End Site
											{
												OFFSET 0.415260 3.926476 -0.049563
											}
										}
									}
								}
								JOINT RightHandIndex1
								{
									OFFSET -11.334419 -0.901459 3.706815
									CHANNELS 3 Xrotation Yrotation Zrotation
									JOINT RightHandIndex2
									{
										OFFSET -3.283112 0.000000 0.000000
										CHANNELS 3 Xrotation Yrotation Zrotation
										JOINT RightHandIndex3
										{
											OFFSET -3.323853 0.000000 0.000000
											CHANNELS 3 Xrotation Yrotation Zrotation
											End Site
											{
												OFFSET 1.135597 3.097809 0.402452
											}
										}
									}
								}
								JOINT RightHandMiddle1
								{
									OFFSET -11.335861 0.000000 0.000000
									CHANNELS 3 Xrotation Yrotation Zrotation
									JOINT RightHandMiddle2
									{
										OFFSET -3.410492 0.000000 0.000000
										CHANNELS 3 Xrotation Yrotation Zrotation
										JOINT RightHandMiddle3
										{
											OFFSET -3.312172 0.000000 0.000000
											CHANNELS 3 Xrotation Yrotation Zrotation
											End Site
											{
												OFFSET 1.150200 3.080154 0.400270
											}
										}
									}
								}
								JOINT RightHandRing1
								{
									OFFSET -11.514786 -0.013176 -3.003090
									CHANNELS 3 Xrotation Yrotation Zrotation
									JOINT RightHandRing2
									{
										OFFSET -3.053307 0.000000 0.000000
										CHANNELS 3 Xrotation Yrotation Zrotation
										JOINT RightHandRing3
										{
											OFFSET -3.295807 0.000000 0.000000
											CHANNELS 3 Xrotation Yrotation Zrotation
											End Site
											{
												OFFSET 1.281006 3.013344 0.375733
											}
										}
									}
								}
								JOINT RightHandPinky1
								{
									OFFSET -10.518692 -0.960396 -5.730441
									CHANNELS 3 Xrotation Yrotation Zrotation
									JOINT RightHandPinky2
									{
										OFFSET -2.861649 0.000000 0.000000
										CHANNELS 3 Xrotation Yrotation Zrotation
										JOINT RightHandPinky3
										{
											OFFSET -2.863380 0.000000 0.000000
											CHANNELS 3 Xrotation Yrotation Zrotation
											End Site
											{
												OFFSET 0.843597 2.711159 0.369971
											}
										}
									}
								}
							}
							JOINT RSleeve
							{
								OFFSET -6.676277 -0.344902 -1.011730
								CHANNELS 3 Xrotation Yrotation Zrotation
								End Site
								{
									OFFSET 0.000000 14.885353 0.000000
								}
							}
						}
					}
				}
				JOINT Backpack
				{
					OFFSET 0.000000 -2.471497 36.677502
					CHANNELS 3 Xrotation Yrotation Zrotation
					End Site
					{
						OFFSET 0.000000 20.427315 0.000000
					}
				}
				JOINT Hood
				{
					OFFSET 0.000000 18.754097 -10.431000
					CHANNELS 3 Xrotation Yrotation Zrotation
					JOINT Hood1
					{
						OFFSET 0.000000 -5.011002 -7.685901
						CHANNELS 3 Xrotation Yrotation Zrotation
						End Site
						{
							OFFSET 0.000000 9.175140 0.000000
						}
					}
				}
				JOINT LHoodieString
				{
					OFFSET 5.250500 16.397697 3.089900
					CHANNELS 3 Xrotation Yrotation Zrotation
					JOINT LHoodieString1
					{
						OFFSET 0.257700 -6.364304 3.694600
						CHANNELS 3 Xrotation Yrotation Zrotation
						JOINT LHoodieString2
						{
							OFFSET 0.000000 -9.643799 2.679100
							CHANNELS 3 Xrotation Yrotation Zrotation
							End Site
							{
								OFFSET 0.000000 10.009018 0.000000
							}
						}
					}
				}
				JOINT RHoodieString
				{
					OFFSET -5.250500 16.397697 3.089900
					CHANNELS 3 Xrotation Yrotation Zrotation
					JOINT RHoodieString1
					{
						OFFSET -0.257700 -6.364304 3.694600
						CHANNELS 3 Xrotation Yrotation Zrotation
						JOINT RHoodieString2
						{
							OFFSET 0.000000 -9.643799 2.679100
							CHANNELS 3 Xrotation Yrotation Zrotation
							End Site
							{
								OFFSET 0.000000 10.009018 0.000000
							}
						}
					}
				}
			}
			JOINT LBackpack_Strap
			{
				OFFSET 15.223200 -7.719803 -6.610900
				CHANNELS 3 Xrotation Yrotation Zrotation
				End Site
				{
					OFFSET 0.000000 16.040596 0.000000
				}
			}
			JOINT RBackpack_Strap
			{
				OFFSET -15.223000 -7.719803 -6.610900
				CHANNELS 3 Xrotation Yrotation Zrotation
				End Site
				{
					OFFSET 0.000000 16.040596 0.000000
				}
			}
		}
	}
	JOINT BoyFacialAnim_Joint
	{
		OFFSET 1.000000 -82.208099 -1.550900
		CHANNELS 3 Xrotation Yrotation Zrotation
		End Site
		{
			OFFSET 0.000000 30.012791 0.000000
		}
	}
}
MOTION
Frames: 4
Frame Time: 0.016667
0.614230 44.751015 -2.106875 10.716979 3.085172 -2.070803 -0.000001 0.000000 -0.000000 -117.916481 -9.500201 11.431192 109.969707 3.232536 -1.902372 28.923447 13.882530 -4.605025 0.000002 0.000002 -0.000001 0.000002 0.000002 -0.000001 -0.000000 -0.000000 0.000000 -108.044065 8.854841 -15.898129 94.111462 2.668540 2.474868 7.089323 -16.123964 5.849687 0.000000 -0.000000 -0.000000 0.000000 -0.000000 -0.000000 -0.000000 0.000000 -0.000000 7.570425 0.862006 0.907899 15.147573 -1.250843 0.616832 15.147575 -1.250843 0.616832 7.956195 0.684793 -3.649183 -24.598988 2.374232 0.026212 0.000001 -0.000001 0.000000 0.000001 -0.000001 0.000000 0.000001 -0.000001 0.000000 0.807422 -10.323229 -2.628119 -40.647514 -53.629317 -68.359716 -5.652684 -56.277019 -0.291251 73.912325 -15.810990 -40.776509 36.402709 -18.599322 13.686069 12.341080 31.733346 -8.576598 -0.000002 0.000000 -0.000000 -9.266089 5.666145 -14.922891 -0.227254 0.348445 -49.708607 0.000002 -0.000000 -0.000000 -0.241038 7.727686 -68.922278 -2.102195 -3.022785 -77.295024 0.000001 -0.000001 -0.000005 -2.822144 1.978544 -79.731694 -3.896985 -3.563530 -63.537924 -0.000000 0.000003 0.000000 -6.516220 2.989309 -86.727071 -3.420448 -6.654740 -59.290803 0.000001 0.000004 0.000000 0.000000 0.000002 -0.000000 0.894199 -3.218943 17.790753 -11.818686 24.354926 34.665741 -66.368006 96.903801 67.723730 37.465801 0.385798 -15.211912 -29.204885 -7.372935 31.579260 12.258058 -24.952614 3.935816 0.000000 0.000000 -0.000003 -7.564810 -1.654069 54.894623 1.204248 -2.832624 23.091717 -0.000004 -0.000002 0.000001 -4.833128 -2.191675 45.583737 0.318840 -0.128773 13.826191 0.000002 0.000002 -0.000002 -4.669777 -0.562990 35.887784 -0.162398 0.123756 19.324369 0.000000 0.000000 0.000006 -4.194082 0.879810 35.315264 -0.107734 0.931681 9.718663 -0.000001 -0.000001 -0.000002 -0.000003 0.000001 -0.000004 -0.000003 -0.000000 -0.000000 -0.000003 -0.000000 -0.000000 -0.000003 -0.000000 -0.000000 -0.000003 -0.000000 -0.000000 -0.000003 -0.000000 -0.000000 0.000000 0.000000 -0.000000 -0.000003 -0.000000 -0.000000 -0.000003 -0.000000 -0.000000 0.000000 0.000000 -0.000000 0.000002 -0.000000 0.000000 0.000002 -0.000000 0.000000 -0.000001 0.000000 -0.000000 
0.612724 44.749359 -2.108685 10.706592 3.082859 -2.073220 0.000000 0.000000 -0.000000 -117.913285 -9.499131 11.431785 109.976503 3.238906 -1.901526 28.910787 13.891537 -4.577666 0.000001 -0.000002 0.000000 0.000001 -0.000002 0.000000 0.000000 0.000000 0.000000 -108.039154 8.843842 -15.898881 94.111189 2.670250 2.475012 7.089305 -16.114344 5.840377 -0.000000 0.000000 -0.000000 -0.000000 0.000000 -0.000000 0.000000 0.000001 0.000000 7.570703 0.862123 0.908136 15.148135 -1.251076 0.616643 15.148128 -1.251076 0.616643 7.955926 0.684526 -3.669813 -24.657241 2.374245 0.026216 0.000002 0.000000 0.000000 0.000002 0.000000 0.000000 0.000002 0.000000 0.000000 0.810313 -10.322725 -2.620363 -40.652552 -53.614246 -68.351376 -5.654667 -56.264721 -0.293937 73.897784 -15.792989 -40.743055 36.402709 -18.599319 13.686060 12.341075 31.733346 -8.576607 -0.000000 -0.000001 -0.000001 -9.266088 5.666149 -14.922894 -0.227255 0.348445 -49.708607 0.000000 0.000001 -0.000002 -0.241041 7.727687 -68.922285 -2.102198 -3.022791 -77.295024 -0.000001 0.000005 -0.000003 -2.822147 1.978543 -79.731694 -3.896984 -3.563533 -63.537924 -0.000001 0.000000 -0.000000 -6.516218 2.989312 -86.727078 -3.420446 -6.654736 -59.290796 -0.000001 0.000004 0.000004 -0.000001 0.000001 0.000003 0.895730 -3.188013 17.769700 -11.824149 24.319300 34.682160 -66.398844 96.911239 67.751829 37.453233 0.394151 -15.219581 -29.204878 -7.372924 31.579250 12.258055 -24.952585 3.935821 0.000002 -0.000000 -0.000002 -7.564808 -1.654052 54.894613 1.204245 -2.832637 23.091726 -0.000000 0.000001 0.000004 -4.833133 -2.191685 45.583737 0.318846 -0.128787 13.826211 -0.000001 0.000001 -0.000002 -4.669775 -0.563015 35.887784 -0.162394 0.123787 19.324355 -0.000001 0.000001 -0.000001 -4.194077 0.879808 35.315254 -0.107738 0.931678 9.718667 -0.000002 -0.000001 0.000000 -0.000001 -0.000001 -0.000002 -0.000000 -0.000000 -0.000000 -0.000000 -0.000000 -0.000000 -0.000000 -0.000000 -0.000000 -0.000000 -0.000000 -0.000000 -0.000000 -0.000000 -0.000000 0.000002 0.000000 -0.000000 -0.000000 -0.000000 -0.000000 -0.000000 -0.000000 -0.000000 0.000002 0.000000 -0.000000 0.000001 0.000000 -0.000000 0.000001 0.000000 -0.000000 0.000000 0.000000 -0.000000 
0.611735 44.747772 -2.110763 10.697613 3.080865 -2.074643 -0.000000 -0.000000 0.000000 -117.909993 -9.498221 11.432434 109.981489 3.244002 -1.900926 28.900856 13.898198 -4.558424 0.000000 0.000001 -0.000001 0.000000 0.000001 -0.000000 0.000000 0.000001 0.000000 -108.035172 8.835545 -15.899627 94.110274 2.670982 2.475072 7.090726 -16.106739 5.832844 -0.000000 0.000000 0.000000 -0.000000 0.000000 0.000000 0.000000 0.000001 -0.000000 7.570942 0.862069 0.908272 15.148625 -1.251355 0.616471 15.148625 -1.251356 0.616471 7.955596 0.684496 -3.691097 -24.710912 2.375051 0.020269 0.000001 0.000000 -0.000000 0.000001 0.000000 -0.000000 0.000001 0.000000 -0.000000 0.813142 -10.322219 -2.612704 -40.662671 -53.599810 -68.349594 -5.654983 -56.249961 -0.295764 73.890851 -15.771255 -40.707856 36.402709 -18.599326 13.686066 12.341079 31.733346 -8.576606 0.000000 0.000001 0.000000 -9.266090 5.666146 -14.922894 -0.227257 0.348445 -49.708600 0.000000 -0.000002 -0.000002 -0.241037 7.727685 -68.922278 -2.102195 -3.022783 -77.295031 0.000001 -0.000004 -0.000000 -2.822146 1.978540 -79.731694 -3.896984 -3.563533 -63.537924 -0.000001 -0.000003 0.000004 -6.516220 2.989311 -86.727078 -3.420446 -6.654742 -59.290803 -0.000000 -0.000001 0.000001 -0.000002 0.000005 0.000001 0.897385 -3.160347 17.748808 -11.827342 24.288004 34.695875 -66.413515 96.917775 67.763823 37.441601 0.398789 -15.228206 -29.204618 -7.374107 31.578454 12.259194 -24.955297 3.936076 -0.000000 0.000002 -0.000005 -7.564828 -1.654219 54.898048 1.204262 -2.832625 23.091729 -0.000001 0.000001 0.000004 -4.833191 -2.191683 45.586482 0.318845 -0.128853 13.825166 0.000001 0.000002 -0.000003 -4.670467 -0.561828 35.885838 -0.162454 0.123971 19.328734 -0.000003 -0.000001 0.000006 -4.193071 0.878549 35.318123 -0.107729 0.931697 9.718671 -0.000002 -0.000002 0.000003 0.000000 0.000000 -0.000003 -0.000001 -0.000000 0.000000 -0.000001 -0.000000 0.000000 -0.000001 -0.000000 0.000000 -0.000001 -0.000000 0.000000 -0.000001 -0.000000 0.000000 -0.000001 -0.000000 -0.000000 -0.000001 -0.000000 0.000000 -0.000001 -0.000000 0.000000 -0.000001 -0.000000 -0.000000 0.000003 0.000000 -0.000000 0.000003 0.000000 -0.000000 -0.000000 -0.000000 0.000000 
0.612343 44.746277 -2.113666 10.692962 3.079797 -2.072861 -0.000000 -0.000000 0.000000 -117.906578 -9.498343 11.432370 109.981106 3.241922 -1.901133 28.900446 13.899957 -4.567026 -0.000000 0.000003 -0.000002 -0.000000 0.000003 -0.000002 -0.000000 0.000001 0.000000 -108.034345 8.835592 -15.900561 94.107555 2.668879 2.474910 7.096466 -16.105303 5.830536 0.000000 0.000000 0.000000 0.000000 0.000000 0.000000 -0.000000 -0.000000 -0.000000 7.571503 0.861252 0.908080 15.149722 -1.252267 0.616382 15.149710 -1.252266 0.616382 7.955336 0.685384 -3.714968 -24.753224 2.383981 0.003579 -0.000001 -0.000000 0.000000 -0.000001 -0.000000 0.000000 -0.000001 -0.000000 0.000000 0.816001 -10.321723 -2.605089 -40.686699 -53.585430 -68.364736 -5.652260 -56.231110 -0.295097 73.903787 -15.739017 -40.667780 36.402709 -18.599321 13.686064 12.341076 31.733346 -8.576603 0.000001 0.000001 -0.000001 -9.266084 5.666143 -14.922893 -0.227254 0.348447 -49.708600 -0.000002 -0.000002 -0.000000 -0.241037 7.727683 -68.922278 -2.102196 -3.022782 -77.295031 0.000000 -0.000003 -0.000002 -2.822143 1.978538 -79.731694 -3.896984 -3.563533 -63.537917 0.000002 0.000001 0.000003 -6.516222 2.989307 -86.727071 -3.420451 -6.654744 -59.290803 0.000001 -0.000000 0.000001 0.000000 0.000001 0.000000 0.895306 -3.142054 17.726241 -11.823085 24.267536 34.703952 -66.384746 96.924462 67.733989 37.431916 0.392577 -15.240348 -29.202839 -7.382787 31.572638 12.268721 -24.977949 3.938174 0.000001 0.000002 -0.000002 -7.564956 -1.655370 54.923436 1.204248 -2.832654 23.091726 -0.000002 0.000000 0.000005 -4.827734 -2.194743 45.610548 0.318935 -0.129670 13.817103 0.000001 -0.000002 -0.000002 -4.676689 -0.550905 35.867147 -0.163007 0.125455 19.367695 -0.000002 0.000002 0.000006 -4.181500 0.866836 35.337432 -0.107733 0.931697 9.718654 0.000001 -0.000002 -0.000000 -0.000002 -0.000000 -0.000001 0.000003 -0.000000 -0.000000 0.000003 -0.000000 -0.000000 0.000003 -0.000000 -0.000000 0.000003 -0.000000 -0.000000 0.000003 -0.000000 -0.000000 0.000005 -0.000000 -0.000000 0.000003 -0.000000 -0.000000 0.000003 -0.000000 -0.000000 0.000005 -0.000000 -0.000000 -0.000002 0.000000 0.000000 -0.000002 0.000000 0.000000 -0.000000 -0.000000 0.000000 
